PathFileType	4	(X/Y/Z)	C:/Users/opensim2020/Desktop/walking_exp_matlab/subject02_walking06_straight_01.trc	
DataRate	CameraRate	NumFrames	NumMarkers	Units	OrigDataRate	OrigDataStartFrame	OrigNumFrames	
100.00	100.00	4	41	mm	100.00	755	205	
Frame#	Time	LFHD			RFHD			LBHD			RBHD			C7			T10			CLAV			STRN			RBAK			LSHO			LUPA			LELB			LFRM			LWRA			LWRB			LFIN			RSHO			RUPA			RELB			RFRM			RWRA			RWRB			RFIN			LASI			RASI			LPSI			RPSI			LTHI			LKNE			LTIB			LANK			LHEE			LTOE			RTHI			RKNE			RTIB			RANK			RHEE			RTOE			*39			*40			
		X1	Y1	Z1	X2	Y2	Z2	X3	Y3	Z3	X4	Y4	Z4	X5	Y5	Z5	X6	Y6	Z6	X7	Y7	Z7	X8	Y8	Z8	X9	Y9	Z9	X10	Y10	Z10	X11	Y11	Z11	X12	Y12	Z12	X13	Y13	Z13	X14	Y14	Z14	X15	Y15	Z15	X16	Y16	Z16	X17	Y17	Z17	X18	Y18	Z18	X19	Y19	Z19	X20	Y20	Z20	X21	Y21	Z21	X22	Y22	Z22	X23	Y23	Z23	X24	Y24	Z24	X25	Y25	Z25	X26	Y26	Z26	X27	Y27	Z27	X28	Y28	Z28	X29	Y29	Z29	X30	Y30	Z30	X31	Y31	Z31	X32	Y32	Z32	X33	Y33	Z33	X34	Y34	Z34	X35	Y35	Z35	X36	Y36	Z36	X37	Y37	Z37	X38	Y38	Z38	X39	Y39	Z39	X40	Y40	Z40	X41	Y41	Z41	

1	0.000	1328.07312	-1037.17175	1727.52478	1470.20679	-1054.81238	1704.80969	1300.60303	-1158.34583	1643.05786	1438.81665	-1188.42102	1617.36902	1361.63831	-1217.75391	1512.58923	1370.63953	-1298.21960	1245.69702	1362.10034	-1086.97131	1431.94788	1369.62146	-1054.50964	1254.46448	1422.02380	-1298.28833	1348.81189	1188.38696	-1127.13159	1483.10120	1098.27429	-1120.76807	1284.10913	1083.35815	-1101.64404	1141.85291	1094.81250	-1043.86084	1021.11737	1158.56287	-953.90808	936.12732	1118.80164	-989.11066	913.81738	1128.05127	-943.09436	867.46790	1553.63062	-1157.54016	1469.71509	1639.62219	-1217.55298	1290.12976	1670.67603	-1218.02417	1144.93567	1694.94348	-1187.73645	1028.53601	1677.65430	-1135.04993	903.12024	1709.42639	-1180.79529	898.22125	1714.31445	-1140.25916	838.53558	1237.35913	-1094.06189	960.46191	1494.19690	-1078.03320	959.39453	1328.97876	-1296.28052	1021.59998	1444.37183	-1295.76563	1022.43146	1210.03503	-1214.38745	658.09033	1248.69641	-1284.26575	467.27573	1253.05371	-1379.68079	297.02808	1298.94897	-1422.87085	77.15034	1348.12549	-1466.71179	56.42149	1300.27808	-1271.55872	24.42166	1594.81799	-1101.92834	671.81085	1567.01477	-1025.44775	477.47195	1590.51782	-1000.47412	294.35831	1576.67480	-942.15039	105.81791	1522.49805	-948.79889	40.05153	1596.24634	-780.48254	102.82894	1404.81250	-1154.23535	1781.67676			 
2	0.010	1330.72205	-1029.18213	1726.62146	1472.75000	-1046.70251	1703.54114	1303.11487	-1150.19836	1642.05334	1441.26245	-1180.34607	1616.08240	1364.10339	-1209.67676	1511.48816	1373.39966	-1290.05505	1244.59875	1364.09460	-1078.84387	1430.80347	1371.34961	-1046.09583	1253.42517	1424.49438	-1290.10522	1347.64307	1190.55225	-1119.66382	1482.25110	1100.52295	-1113.09351	1283.11401	1085.42615	-1094.07056	1140.97876	1096.99377	-1036.11157	1020.41785	1161.02295	-946.46118	935.25171	1121.05896	-980.68823	912.94189	1130.26697	-935.16675	866.73254	1555.92981	-1148.99768	1468.35632	1641.49902	-1210.05981	1288.95459	1672.35767	-1211.53845	1143.78552	1696.77393	-1182.25256	1027.19214	1679.62585	-1130.34412	901.31860	1711.24365	-1176.28918	896.87488	1716.20105	-1136.18018	836.77417	1238.64087	-1086.94531	959.37976	1495.33484	-1068.98425	958.00140	1331.81580	-1288.66370	1020.81036	1447.26477	-1287.06580	1021.37769	1211.15454	-1209.49646	657.90656	1249.64734	-1280.19128	467.32370	1253.77515	-1377.22827	298.03903	1299.06433	-1422.38635	78.28300	1348.00916	-1466.51294	58.32951	1300.19666	-1271.55994	24.46006	1595.76599	-1093.19202	670.15845	1566.85266	-1016.75317	475.74698	1590.62830	-988.71423	293.47250	1577.03442	-927.32849	106.07681	1523.12439	-933.12579	39.90667	1595.01331	-765.25739	105.22181	1407.56226	-1146.15979	1780.34546			 
3	0.020	1333.60046	-1020.92908	1725.52332	1475.43518	-1038.54883	1702.21448	1305.71570	-1142.09387	1641.08167	1443.77014	-1172.11694	1614.71692	1366.64355	-1201.44788	1510.28870	1376.27051	-1281.74463	1243.43567	1366.18018	-1070.65662	1429.65479	1372.89111	-1038.03955	1252.19226	1426.99963	-1281.58679	1346.22339	1192.81311	-1112.09009	1481.30981	1102.67737	-1105.44678	1282.01440	1088.01672	-1086.03528	1139.82642	1099.32410	-1028.27979	1019.37640	1163.16089	-939.69226	934.04510	1123.13293	-973.37872	912.06061	1132.25427	-927.99249	865.65442	1558.34570	-1140.51196	1466.98755	1643.54846	-1202.54517	1287.75964	1674.17651	-1204.81189	1142.56177	1698.64929	-1176.47839	1025.75183	1681.64600	-1125.49146	899.44458	1713.10376	-1171.57349	895.41809	1718.23010	-1132.09583	834.99786	1240.03870	-1079.44202	958.31079	1496.50500	-1060.00977	956.59351	1334.75342	-1280.71082	1019.72772	1450.16492	-1278.19531	1020.11914	1212.23657	-1204.52612	657.67645	1250.52161	-1275.95166	467.40726	1254.50903	-1374.61230	299.14633	1299.16345	-1421.84424	79.60892	1348.23499	-1466.02588	60.02524	1300.14636	-1271.52844	24.37293	1596.69629	-1084.15576	668.45361	1567.00317	-1007.61926	474.46054	1590.76733	-977.48267	292.55292	1576.86292	-913.85150	105.75182	1522.91663	-919.05743	39.35936	1594.13721	-751.53870	106.45228	1410.44885	-1138.03333	1779.05762			 
4	0.030	1336.34473	-1012.86920	1724.68640	1478.20483	-1030.30444	1700.91248	1308.38086	-1133.76575	1640.06287	1446.37756	-1163.81604	1613.39502	1369.29993	-1193.13928	1509.09973	1379.17456	-1273.29468	1242.26697	1368.43689	-1062.29822	1428.50903	1374.48474	-1029.92480	1250.90430	1429.77637	-1273.25964	1345.19360	1195.16882	-1104.41101	1480.36609	1105.13428	-1097.87634	1281.09216	1090.37964	-1078.65833	1138.85657	1101.57764	-1020.97052	1018.38513	1165.01038	-932.46625	932.68976	1125.25623	-966.01880	910.85699	1134.24963	-920.72668	864.32867	1560.96265	-1131.71826	1465.55481	1645.67493	-1194.84937	1286.52332	1676.07568	-1197.97864	1141.37402	1700.59033	-1170.52136	1024.28918	1683.80774	-1120.43042	897.65436	1715.07874	-1166.65320	893.92450	1720.29883	-1127.52612	833.12091	1241.43555	-1072.07703	957.23224	1497.88928	-1050.80249	955.22076	1337.78723	-1272.63318	1018.61896	1453.12964	-1269.27393	1018.87408	1213.60889	-1198.90125	657.12146	1251.42578	-1271.47266	467.48373	1255.28735	-1371.93555	300.27359	1299.22815	-1421.19458	80.87624	1348.31348	-1465.62280	61.84226	1300.08765	-1271.53027	24.33985	1597.83228	-1074.85083	666.96405	1567.41028	-998.06213	473.22592	1590.80847	-966.73114	291.51505	1576.18774	-901.86816	104.87225	1522.24951	-906.99768	38.68158	1593.22620	-739.60760	106.35071	1413.51782	-1130.08752	1778.08264	-3356.88159	2845.82275	1033.94849 
